<?xml version="1.0" encoding="UTF-8"?>
<svg id="Layer_2" data-name="Layer 2" xmlns="http://www.w3.org/2000/svg" viewBox="0 0 144.58 34.08">
  <g id="Layer_1-2" data-name="Layer 1">
    <g>
      <path d="m40.38,33.65h-10.25l-2.71-6.73h-14.42l-2.75,6.73H0L14.68.46h11.07l14.63,33.2Zm-15.26-12.5l-4.86-12.12-4.91,12.12h9.77Z" style="fill: #3f387b; stroke-width: 0px;"/>
      <path d="m74.4,24.24c0,2.86-.98,5.14-2.93,6.85-1.96,1.71-4.69,2.56-8.2,2.56h-19.19V.46h16.05c2.08,0,3.88.2,5.42.6,1.54.4,2.78.95,3.72,1.64.94.69,1.64,1.51,2.11,2.46.46.94.69,1.97.69,3.09,0,1.21-.24,2.34-.72,3.37-.48,1.03-1.07,1.88-1.79,2.54-.71.66-1.42,1.13-2.14,1.4,2.27.89,4,2.02,5.19,3.39s1.79,3.13,1.79,5.31Zm-11.69-14.23c0-1.6-.53-2.66-1.58-3.19s-2.7-.79-4.93-.79h-2.11v7.95h2.16c2.28,0,3.93-.26,4.95-.79,1.01-.53,1.52-1.59,1.52-3.19Zm1.63,13.82c0-2.84-2.06-4.26-6.18-4.26h-4.07v8.5h4.07c4.12,0,6.18-1.41,6.18-4.24Z" style="fill: #3f387b; stroke-width: 0px;"/>
      <path d="m111.04.46l-14.97,33.63h-6.61L74.78.46h10.42l7.59,19.16L100.6.46h10.44Z" style="fill: #3f387b; stroke-width: 0px;"/>
      <path d="m144.58,31.31c-.72.27-1.33.5-1.84.67-.51.18-1,.34-1.47.48-.47.14-1.15.33-2.05.55-1.52.35-3.03.62-4.54.8-1.51.18-3.1.28-4.78.28-3.37,0-6.48-.61-9.34-1.84s-5.15-3.14-6.86-5.72c-1.72-2.59-2.58-5.76-2.58-9.53,0-2.43.44-4.81,1.33-7.15.89-2.34,2.24-4.21,4.06-5.62,1.5-1.17,3.02-2.06,4.56-2.67s3.05-1.03,4.51-1.23c1.47-.21,3.09-.31,4.86-.31,2.92,0,5.33.22,7.23.66,1.9.44,3.98,1.02,6.25,1.74v7.86c-1.5-.88-3.09-1.61-4.77-2.2s-3.77-.89-6.28-.89c-2.89,0-5.2.55-6.93,1.64-1.73,1.09-2.94,2.4-3.62,3.92-.68,1.52-1.02,2.99-1.02,4.41,0,1.68.39,3.22,1.17,4.63s1.96,2.55,3.54,3.4c1.58.85,3.49,1.28,5.72,1.28,1.28,0,2.63-.17,4.07-.5v-3.9h-4.5v-6.68h13.25v15.95Z" style="fill: #3f387b; stroke-width: 0px;"/>
    </g>
  </g>
</svg>